<svg xmlns="http://www.w3.org/2000/svg" xml:space="preserve" width="800" height="800" viewBox="0 0 59.977 59.977">
  <path d="M23.942 40.195a1 1 0 0 0-1.414 0l-8.021 8.021-.708-.708 8.9-8.9a.999.999 0 1 0-1.414-1.414l-8.9 8.9-.707-.707 8.021-8.021a.999.999 0 1 0-1.414-1.414l-8.021 8.021-.707-.707a.999.999 0 1 0-1.414 1.414l.707.707-.707.707a.999.999 0 1 0 1.414 1.414l.707-.707.707.707-.707.707a.999.999 0 1 0 1.414 1.414l.707-.707.708.708-.707.707a.999.999 0 1 0 1.414 1.414l.707-.707.707.707a.997.997 0 0 0 1.414 0 1 1 0 0 0 0-1.414l-.707-.707 8.021-8.021a1 1 0 0 0 0-1.414"/>
  <path d="M18.492 32.902c-4.687 0-8.5 3.813-8.5 8.5h2c0-3.584 2.916-6.5 6.5-6.5s6.5 2.916 6.5 6.5-2.916 6.5-6.5 6.5v2c4.687 0 8.5-3.813 8.5-8.5s-3.813-8.5-8.5-8.5"/>
  <path d="M58.825 11.017c1.696-2.295 1.526-5.545-.552-7.622l-1.6-1.601a5.83 5.83 0 0 0-4.15-1.719 5.82 5.82 0 0 0-3.485 1.154l-.757-.757a.999.999 0 1 0-1.414 1.414l.707.707-1.414 1.416-.707-.707a1 1 0 1 0-1.415 1.414l.708.708-.006.004a2.64 2.64 0 0 0-.771 1.888c.008.649.264 1.245.72 1.68a.5.5 0 0 1 .01.715L31.368 23.043l-.441-.441-.219-.166c-6.698-3.741-19.936 1.937-25.59 7.591-6.823 6.823-6.823 17.925 0 24.748 3.305 3.306 7.7 5.126 12.375 5.126s9.069-1.82 12.374-5.126c5.654-5.654 11.333-18.89 7.591-25.589l-.453-.466 13.352-13.352a.5.5 0 0 1 .708 0 2.5 2.5 0 0 0 3.535 0l.046-.046.708.707a.997.997 0 0 0 1.414 0 1 1 0 0 0 0-1.414l-.708-.707 1.415-1.415.707.707a.997.997 0 0 0 1.414 0 1 1 0 0 0 0-1.414zM35.61 30.115l.165.165c3.125 5.882-2.254 18.014-7.323 23.082-2.928 2.928-6.82 4.54-10.96 4.54s-8.033-1.612-10.96-4.54c-6.043-6.043-6.043-15.877 0-21.92 4.027-4.026 12.511-8.248 18.778-8.248 1.622 0 3.096.283 4.305.925l.338.339-3.063 3.063a2.5 2.5 0 0 0-.73 1.865c.028.704.355 1.373.896 1.834a14 14 0 0 1 1.746 1.774 2.55 2.55 0 0 0 1.961.933c.069 0 .136-.015.204-.02.084-.007.167-.01.249-.025.076-.014.148-.039.221-.06.087-.025.176-.045.26-.079.079-.032.152-.077.227-.117.071-.038.146-.069.213-.114a2.5 2.5 0 0 0 .392-.318zm16.867-16.161c-.945-.945-2.59-.945-3.535 0L31.115 31.781a.46.46 0 0 1-.376.146.54.54 0 0 1-.393-.202c-.105-.128-.223-.244-.332-.369L52.36 8.92a1.001 1.001 0 0 0-1.418-1.412L28.607 29.933c-.086-.077-.166-.162-.254-.237a.54.54 0 0 1-.194-.391.5.5 0 0 1 .146-.371l17.809-17.81c.481-.48.741-1.119.732-1.8a2.48 2.48 0 0 0-.779-1.78.34.34 0 0 1-.098-.255.65.65 0 0 1 .186-.448l.712-.712 2.921-2.922a3.84 3.84 0 0 1 2.735-1.133 3.84 3.84 0 0 1 2.736 1.133l1.6 1.601c.73.73 1.133 1.702 1.133 2.735s-.402 2.005-1.133 2.735l-3.675 3.675a.5.5 0 0 1-.707.001"/>
</svg>
